<svg width="73" height="65" viewBox="0 0 73 65" fill="none" xmlns="http://www.w3.org/2000/svg">
<rect width="73" height="65" fill="#E5E5E5"/>
<path d="M64.7222 54.5074C64.7089 51.7207 64.8289 48.934 65.0022 46.1474C56.5489 51.7607 43.9356 53.0007 34.1489 52.734C24.6822 52.4674 13.3356 50.9074 6.32223 43.9074C6.53557 47.054 6.7889 50.214 6.7489 53.3074C6.81557 53.3474 6.8689 53.3874 6.92223 53.4674C12.0289 62.254 24.7356 61.654 33.7489 61.2274C43.0556 60.7874 55.7756 60.2807 63.7622 54.7207C64.0956 54.4807 64.4289 54.4407 64.7222 54.5074ZM65.1756 43.534C65.2556 42.5607 65.3489 41.5874 65.4289 40.614C55.8556 45.0274 44.5622 46.494 34.1622 45.9874C24.4956 45.5207 12.9756 43.8274 6.05557 36.3474C6.04223 36.4407 6.04223 36.5207 6.04223 36.614C6.0289 38.334 6.09556 40.0674 6.1889 41.814C6.24223 41.8407 6.29556 41.854 6.33556 41.894C21.4422 54.894 47.9089 51.294 64.6289 43.654C64.8156 43.5607 65.0022 43.534 65.1756 43.534V43.534ZM69.9889 21.454C70.5222 19.9874 70.8689 18.254 70.2422 16.7607C69.3889 14.734 67.5356 15.0007 65.7756 14.4674C65.1222 14.2674 65.2022 13.4274 65.7756 13.2007C65.9356 13.134 66.0956 13.1074 66.2422 13.054C66.0822 12.9607 65.9489 12.8007 65.8956 12.5474C65.6956 11.6807 65.6156 10.8274 65.6556 9.93403C65.7089 8.62736 65.4156 8.41403 63.9222 8.61403C63.2689 8.70737 62.7889 8.26736 62.8956 7.6007C63.2956 5.3607 62.8689 2.18736 59.7889 3.0807C57.8556 3.6407 56.6289 5.01403 54.9889 6.0807C54.5089 6.4007 54.0556 5.90736 54.1089 5.45403C53.4822 4.2807 52.7356 2.73403 51.5489 2.17403C49.3089 1.13403 47.9222 3.69403 47.0422 5.17403C46.8156 5.54736 46.2156 5.6807 45.9089 5.3207C44.7756 3.94736 43.9222 2.36069 42.5089 4.06736C41.9622 4.73403 41.4289 5.25403 40.6022 5.54736C40.4956 5.57403 40.3889 5.58736 40.2956 5.57403C40.2689 6.10736 39.6556 6.53403 39.1756 6.0407C36.0822 2.9207 32.9489 3.06736 29.5622 5.54736C29.2556 5.77403 28.7889 5.65403 28.5356 5.41403C25.5622 2.70736 24.5222 5.34736 21.8022 6.21403C21.5222 6.30736 21.2689 6.17403 21.1089 5.97403C20.8689 6.06736 20.5222 5.97403 20.4156 5.69403C20.0956 4.74736 19.4689 3.0007 18.1889 3.0807C17.5622 3.13403 17.0689 3.4807 16.6022 3.8407C16.8422 4.10736 16.5622 4.53403 16.1756 4.37403C16.1089 4.33403 16.0289 4.30737 15.9622 4.2807C15.6289 4.49403 15.2689 4.66736 14.8556 4.66736C14.5356 4.6807 14.2289 4.38736 14.2422 4.06736C14.2556 3.96069 14.2956 3.86736 14.3222 3.77403C12.6956 3.42736 10.8822 3.5207 9.68223 4.65403C7.97557 6.25403 8.85557 8.06736 8.80223 10.0674C8.80223 10.5074 8.3489 10.854 7.9489 10.7874C7.41556 11.294 6.84223 11.7607 6.24223 12.214C4.65556 13.4407 5.85557 14.494 7.1089 15.574C7.44223 15.8674 7.36223 16.5207 6.96223 16.7074C5.61557 17.3474 2.76223 18.814 2.96223 20.694C3.01557 21.2807 3.4689 21.494 4.08223 21.5207C4.13557 21.2007 4.16223 20.8807 4.2289 20.5607C4.24223 20.4674 4.3889 20.454 4.4289 20.534C4.57556 20.8407 4.6689 21.1607 4.7889 21.4807C6.0289 21.3074 7.5489 20.7207 8.09556 20.694C8.53556 20.6807 8.76223 21.0807 8.7089 21.454C9.08223 21.4007 9.5089 21.654 9.5089 22.094C9.60223 26.174 12.6422 25.8274 15.1356 24.294C15.9089 23.8274 16.6156 24.6007 16.5089 25.3474C16.1089 28.1207 18.1356 31.2007 20.8556 28.4274C21.4289 27.894 21.9622 27.294 22.4156 26.654C22.7489 26.2274 23.4956 26.2807 23.8289 26.654C26.4822 29.494 28.5222 27.9207 31.6022 28.8407C32.4556 29.094 32.3089 30.4274 31.3889 30.414C27.9889 30.3607 25.6689 30.894 23.1889 28.8007C19.3756 32.9074 14.4156 32.2407 14.5222 26.7207C10.6822 28.414 7.1889 27.414 8.16223 22.1607C7.48223 22.7074 6.44223 23.1474 5.36223 23.3474C6.28223 27.054 6.16223 31.134 6.0689 34.9474C6.3889 34.7207 6.8289 34.6674 7.2289 34.9874C22.6289 47.3874 48.4022 45.254 65.6822 37.734C65.9622 34.5207 66.2556 31.3074 66.4822 28.094C64.6156 28.9474 62.4689 29.254 60.2289 28.8407C56.5756 31.014 53.6422 31.0807 50.9356 28.1874C47.7889 31.6274 44.4022 31.5607 40.6422 28.8007C38.4022 31.9207 36.0822 32.814 33.1089 29.3874C32.4689 28.654 33.4289 27.694 34.1756 28.3207C36.2556 30.0807 38.3356 28.774 39.5356 26.854C39.8822 26.294 40.6422 26.1874 41.1222 26.6407C44.0022 29.3607 47.6422 29.1207 50.1889 25.8674C50.6422 25.294 51.4689 25.6007 51.8289 26.0807C54.7756 30.0674 56.6956 28.0807 59.7356 27.3607C59.9622 27.3074 60.1756 27.3474 60.3356 27.454C64.4956 27.7607 68.5356 25.534 69.9889 21.454V21.454ZM67.2956 12.8407C71.4822 12.4807 73.5222 18.054 72.2422 21.6007C71.4422 23.8674 70.0556 25.734 68.3089 27.0274C68.3489 27.1207 68.3756 27.2274 68.3756 27.3607C68.7889 36.6407 67.5089 45.8807 67.1889 55.1607C67.1622 56.054 66.3889 56.4274 65.7089 56.3207C65.6289 56.614 65.4556 56.8807 65.1489 57.1074C55.6822 63.7074 39.5489 64.374 28.4956 64.0807C24.0422 63.974 5.8289 63.0807 5.93557 55.2674C5.61557 55.3207 5.2689 55.214 5.0689 54.854C2.5889 50.2807 3.48223 43.6407 3.5889 38.6274C3.69557 33.694 3.28223 28.414 3.81556 23.4407C2.5489 23.3474 1.45556 22.7874 1.09556 21.494C0.335564 18.734 2.7889 16.7474 5.1489 15.8007C4.1889 14.934 3.16223 13.774 3.8289 12.5874C4.52223 11.3474 6.09557 10.854 7.29557 10.1207C5.9889 7.98736 6.5089 4.66737 8.53557 3.1607C10.4689 1.73403 12.7489 1.9607 14.7889 2.8407C15.7222 1.73403 17.6289 1.05403 18.8422 1.41403C20.4289 1.89403 21.0289 3.46736 21.2556 4.97403C23.5356 2.98736 26.0956 0.894031 28.8556 3.41403C29.1889 3.7207 33.7489 1.65403 34.9089 1.82737C36.9622 2.13403 38.3889 3.0807 39.6956 4.57403C39.7489 4.41403 39.8556 4.25403 40.0289 4.1607C41.1756 3.50737 41.8822 1.74736 43.2689 1.5607C44.6022 1.4007 45.6156 2.46736 46.4022 3.53403C47.4689 1.97403 49.0822 0.0940328 51.0022 0.614033C52.8956 1.1207 53.9622 2.69403 54.6956 4.40069C56.2156 2.40069 59.3756 0.894032 61.7356 1.46737C64.3756 2.09403 64.8289 4.5207 64.6422 6.8407C65.6822 6.7207 66.6956 6.7607 67.3489 7.77403C68.0556 8.89403 67.3222 10.854 67.5222 12.1074C67.5756 12.414 67.4689 12.654 67.2956 12.8407Z" fill="#1D1D1B"/>
<path d="M64.7356 18.6008C64.6956 18.6141 64.6423 18.6141 64.5889 18.6274C64.7489 18.9341 64.8023 19.2941 64.6289 19.6408C64.2689 20.3608 63.6289 20.8141 62.9489 21.2008C61.7356 21.9074 61.2289 22.4808 60.8556 23.8541C60.6823 24.4941 59.7489 24.8274 59.2823 24.2674C58.5356 23.3874 56.9489 21.1741 55.5223 21.6008C54.5223 21.8941 53.7356 22.7074 52.9623 23.3874C52.6543 23.6528 52.3089 23.6248 52.0569 23.4634C52.0089 23.4888 51.9476 23.4968 51.8876 23.5088C51.9196 24.4901 50.5303 25.1728 50.0289 24.1208C49.5756 23.1474 48.6289 20.4141 47.1756 20.6008C45.5756 20.7874 44.7889 22.8274 44.1623 24.0408C43.7889 24.7341 42.8023 24.5074 42.5756 23.8274C42.1756 22.6141 40.9623 18.7741 38.8956 19.5741C37.4423 20.1474 36.9623 21.6808 36.4289 22.9874C36.2676 23.3674 35.7863 23.4634 35.5236 23.2554C35.4383 23.2968 35.3476 23.3248 35.2623 23.3768C35.0969 23.4781 34.9383 23.4901 34.7956 23.4554C34.6409 23.5661 34.4409 23.6221 34.2023 23.5608C33.1089 23.2674 32.2556 22.6808 31.3089 22.0941C29.3489 20.8941 28.5889 22.3608 27.5756 24.0008C27.1756 24.6408 26.3623 24.4408 26.1089 23.8141C25.6289 22.6141 24.9889 20.7208 23.9223 19.8408C22.1889 18.4008 20.8689 21.3608 20.4023 22.2674C20.2809 22.5008 19.9729 22.4448 19.8436 22.2768C19.7409 22.2821 19.6343 22.2701 19.5236 22.2234C19.3089 22.1314 19.0916 22.4008 18.9743 22.5261C18.7689 22.7461 18.5209 22.7661 18.3103 22.6821C17.9303 22.9528 17.3036 22.8181 17.1623 22.2941C16.7223 20.6808 17.1489 18.6941 15.7089 17.4674C14.5089 16.4408 12.7489 16.5608 11.2956 16.7741C10.4023 16.8941 10.0023 15.5474 10.9089 15.4008C11.3089 15.3341 11.7089 15.2808 12.1356 15.2408C11.6289 14.9608 11.1489 14.6008 10.7223 14.2141C10.2689 13.8008 10.8556 13.0541 11.3756 13.3741C12.6289 14.1474 14.4823 14.9741 15.8689 13.9874C17.3756 12.9074 16.7356 11.3608 17.1623 9.88075C17.3356 9.25409 18.1623 9.16075 18.4956 9.70742C18.5223 9.75142 18.5316 9.80475 18.5569 9.85009C18.7076 9.79942 18.8596 9.76475 19.0143 9.74475C19.1849 9.55675 19.4809 9.48609 19.7223 9.72075C21.6423 11.5474 23.2156 13.0008 25.5756 10.2674C25.7889 10.0141 26.2556 9.94742 26.5223 10.1474C27.8156 11.0808 29.6156 12.4141 31.3356 11.7741C32.9223 11.1741 33.6289 10.0408 34.6823 8.85409C35.0289 8.46742 35.4823 8.66742 35.6823 9.01409C35.8156 8.90742 36.0023 8.88075 36.1756 9.04075C39.4289 12.2141 41.8156 11.1341 44.3489 8.01409C44.5223 7.80075 44.8823 7.72075 45.1223 7.80075C47.2156 8.53409 49.4023 8.90742 51.4689 9.70742C54.3089 10.8141 56.0689 11.5208 58.7356 10.0408C59.4023 9.66742 60.0156 10.2008 60.0823 10.7874C60.1356 10.7074 60.1889 10.6274 60.2289 10.5608C60.5623 10.0674 61.4156 10.3608 61.2156 10.9608C60.8423 12.0674 60.0556 14.3074 60.7756 15.4141C61.6023 16.6808 63.7756 16.1608 64.9756 16.6808C65.9223 17.0941 65.4556 18.2941 64.7356 18.6008ZM70.2423 16.7608C69.3889 14.7341 67.5356 15.0008 65.7756 14.4674C65.1223 14.2674 65.2023 13.4274 65.7756 13.2008C65.9356 13.1341 66.0956 13.1074 66.2423 13.0541C66.0823 12.9608 65.9489 12.8008 65.8956 12.5474C65.6956 11.6808 65.6156 10.8274 65.6556 9.93409C65.7089 8.62742 65.4156 8.41409 63.9223 8.61409C63.2689 8.70742 62.7889 8.26742 62.8956 7.60075C63.2956 5.36075 62.8689 2.18742 59.7889 3.08075C57.8556 3.64075 56.6289 5.01408 54.9889 6.08075C54.5089 6.40075 54.0556 5.90742 54.1089 5.45409C53.4823 4.28075 52.7356 2.73409 51.5489 2.17409C49.3089 1.13409 47.9223 3.69409 47.0423 5.17409C46.8156 5.54742 46.2156 5.68075 45.9089 5.32075C44.7756 3.94742 43.9223 2.36075 42.5089 4.06742C41.9623 4.73409 41.4289 5.25409 40.6023 5.54742C40.4956 5.57409 40.3889 5.58742 40.2956 5.57409C40.2689 6.10742 39.6556 6.53409 39.1756 6.04075C36.0823 2.92075 32.9489 3.06742 29.5623 5.54742C29.2556 5.77409 28.7889 5.65408 28.5356 5.41408C25.5623 2.70742 24.5223 5.34742 21.8023 6.21409C21.5223 6.30742 21.2689 6.17408 21.1089 5.97408C20.8689 6.06742 20.5223 5.97409 20.4156 5.69409C20.0956 4.74742 19.4689 3.00075 18.1889 3.08075C17.5623 3.13408 17.0689 3.48075 16.6023 3.84075C16.8423 4.10742 16.5623 4.53409 16.1756 4.37409C16.1089 4.33409 16.0289 4.30742 15.9623 4.28075C15.6289 4.49409 15.2689 4.66742 14.8556 4.66742C14.5356 4.68075 14.2289 4.38742 14.2423 4.06742C14.2556 3.96075 14.2956 3.86742 14.3223 3.77409C12.6956 3.42742 10.8823 3.52075 9.68226 4.65409C7.9756 6.25409 8.8556 8.06742 8.80226 10.0674C8.80226 10.5074 8.34893 10.8541 7.94893 10.7874C7.4156 11.2941 6.84227 11.7608 6.24227 12.2141C4.6556 13.4408 5.8556 14.4941 7.10893 15.5741C7.44226 15.8674 7.36226 16.5208 6.96226 16.7074C5.6156 17.3474 2.76226 18.8141 2.96226 20.6941C3.0156 21.2808 3.46893 21.4941 4.08226 21.5208C4.1356 21.2008 4.16226 20.8808 4.22893 20.5608C4.24226 20.4674 4.38893 20.4541 4.42893 20.5341C4.5756 20.8408 4.66893 21.1608 4.78893 21.4808C6.02893 21.3074 7.54893 20.7208 8.0956 20.6941C8.5356 20.6808 8.76226 21.0808 8.70893 21.4541C9.08226 21.4008 9.50893 21.6541 9.50893 22.0941C9.60227 26.1741 12.6423 25.8274 15.1356 24.2941C15.9089 23.8274 16.6156 24.6008 16.5089 25.3474C16.1089 28.1208 18.1356 31.2008 20.8556 28.4274C21.4289 27.8941 21.9623 27.2941 22.4156 26.6541C22.7489 26.2274 23.4956 26.2808 23.8289 26.6541C26.3676 29.3714 28.3476 28.0541 31.2116 28.7408C31.3356 28.6794 31.4756 28.6421 31.6423 28.6728C32.0489 28.7488 32.5143 28.8128 32.9303 28.7088C33.0463 28.2194 33.6569 27.8848 34.1756 28.3208C36.2556 30.0808 38.3356 28.7741 39.5356 26.8541C39.8823 26.2941 40.6423 26.1874 41.1223 26.6408C44.0023 29.3608 47.6423 29.1208 50.1889 25.8674C50.6423 25.2941 51.4689 25.6008 51.8289 26.0808C54.7756 30.0674 56.6956 28.0808 59.7356 27.3608C59.9623 27.3074 60.1756 27.3474 60.3356 27.4541C64.4956 27.7608 68.5356 25.5341 69.9889 21.4541C70.5223 19.9874 70.8689 18.2541 70.2423 16.7608" fill="#F6F6F6"/>
<path d="M58.8289 16.5474C58.0156 14.8274 58.6289 13.1874 59.5222 11.6807C57.4956 12.814 55.8556 14.1607 53.4689 13.4674C51.8689 13.014 51.0289 11.2674 49.3756 10.8007C48.0422 10.4274 46.7089 10.0807 45.3889 9.65402C44.9889 9.53402 42.3356 12.7207 40.9089 12.734C38.4689 12.774 37.1489 11.5207 35.6956 9.68069C33.9889 13.3207 29.9089 14.574 26.5889 12.134C26.1356 11.8007 23.8822 13.7607 22.8156 13.4674C21.4129 13.086 20.4729 12.0607 19.5422 11.0154C19.4916 11.0274 18.9702 10.246 18.9102 10.2474C18.7289 10.2487 19.0609 11.082 18.8996 11.1354C18.9756 12.774 18.0142 14.6954 16.7089 15.414C16.4422 15.5607 16.1889 15.6674 15.9222 15.7607C16.2289 15.9207 16.5356 16.1074 16.8156 16.3607C17.9849 17.4447 18.7809 20.406 18.7742 22.122C19.2276 21.902 19.2622 21.7834 19.8022 22.014C20.3916 20.6714 21.7182 18.0954 23.2156 18.3074C24.9889 18.5607 26.1222 20.334 26.9489 21.9474C27.7222 20.7874 28.7089 19.734 30.1756 19.814C31.6596 19.906 33.4889 21.378 34.7036 22.174C34.9516 22.0327 35.1249 22.7514 35.4009 22.666C35.7836 20.8287 37.1276 17.9967 39.0956 17.9074C41.3222 17.814 42.6422 19.5607 43.4956 21.4407C44.3356 19.9607 45.5622 18.5207 47.1756 18.7207C49.2476 18.9634 50.5009 20.5394 51.4236 22.2967C51.5156 22.242 51.0809 22.702 51.6956 22.8274C51.8942 22.8674 51.7556 22.598 51.9542 22.242C52.9036 21.1834 54.0729 19.814 55.6289 19.7874C57.1089 19.774 58.3222 20.6007 59.3489 21.6007C60.0422 20.4274 61.5089 19.8007 62.5489 18.7607C61.0156 18.534 59.3889 17.734 58.8289 16.5474Z" fill="#683C11"/>
<path d="M60.2289 28.8407C56.5756 31.0141 53.6423 31.0807 50.9356 28.1874C47.7889 31.6274 44.4023 31.5607 40.6423 28.8007C38.5196 31.7581 35.7116 31.8687 32.9569 29.0447C32.4623 29.2261 32.8009 29.2941 32.2783 29.2487C32.1529 29.4541 31.6969 30.4181 31.3889 30.4141C27.9889 30.3607 25.6689 30.8941 23.1889 28.8007C19.3756 32.9074 14.4156 32.2407 14.5223 26.7207C10.6823 28.4141 7.18894 27.4141 8.16228 22.1607C7.48228 22.7074 6.44227 23.1474 5.36227 23.3474C6.28227 27.0541 6.16228 31.1341 6.06894 34.9474C6.38894 34.7207 6.82894 34.6674 7.22894 34.9874C22.6289 47.3874 48.4023 45.2541 65.6823 37.7341C65.9623 34.5207 66.2556 31.3074 66.4823 28.0941C64.6156 28.9474 62.4689 29.2541 60.2289 28.8407Z" fill="#683C11"/>
<path d="M65.429 40.614C65.349 41.5874 65.2556 42.5607 65.1756 43.534C65.0023 43.534 64.8156 43.5607 64.629 43.654C47.909 51.294 21.4423 54.894 6.33562 41.894C6.29562 41.854 6.24229 41.8407 6.18895 41.814C6.09562 40.0674 6.02895 38.334 6.04229 36.614C6.04229 36.5207 6.04229 36.4407 6.05562 36.3474C12.9756 43.8274 24.4956 45.5207 34.1623 45.9874C44.5623 46.494 55.8556 45.0274 65.429 40.614Z" fill="#FFACAC"/>
<path d="M64.9756 16.6807C65.9223 17.0941 65.4556 18.2941 64.7356 18.6007C64.6956 18.6141 64.6423 18.6141 64.5889 18.6274C64.7489 18.9341 64.8023 19.2941 64.6289 19.6407C64.2689 20.3607 63.6289 20.8141 62.9489 21.2007C61.7356 21.9074 61.2289 22.4807 60.8556 23.8541C60.6823 24.4941 59.7489 24.8274 59.2823 24.2674C58.5356 23.3874 56.9489 21.1741 55.5223 21.6007C54.5223 21.8941 53.7356 22.7074 52.9623 23.3874C52.5756 23.7207 52.1223 23.6007 51.8823 23.3207C52.1223 24.4007 50.5623 25.2407 50.0289 24.1207C49.5756 23.1474 48.6289 20.4141 47.1756 20.6007C45.5756 20.7874 44.7889 22.8274 44.1623 24.0407C43.7889 24.7341 42.8023 24.5074 42.5756 23.8274C42.1756 22.6141 40.9623 18.7741 38.8956 19.5741C37.4423 20.1474 36.9623 21.6807 36.4289 22.9874C36.2023 23.5207 35.3356 23.5074 35.3489 22.8541C35.3889 20.8274 36.7489 18.0141 39.0956 17.9074C41.3223 17.8141 42.6423 19.5607 43.4956 21.4407C44.3356 19.9607 45.5623 18.5207 47.1756 18.7207C49.4556 18.9874 50.7489 20.8674 51.6956 22.8274C51.6956 22.6541 51.7489 22.4807 51.8956 22.3074C52.8556 21.2407 54.0423 19.8141 55.6289 19.7874C57.1089 19.7741 58.3223 20.6007 59.3489 21.6007C60.0423 20.4274 61.5089 19.8007 62.5489 18.7607C61.0156 18.5341 59.3889 17.7341 58.8289 16.5474C58.0156 14.8274 58.6289 13.1874 59.5223 11.6807C57.4956 12.8141 55.8556 14.1607 53.4689 13.4674C51.8689 13.0141 51.0289 11.2674 49.3756 10.8007C48.0423 10.4274 46.7089 10.0807 45.3889 9.65408C44.9889 9.53408 42.3356 12.7207 40.9089 12.7341C38.4689 12.7741 37.1489 11.5207 35.6956 9.68074C33.9889 13.3207 29.9089 14.5741 26.5889 12.1341C26.1356 11.8007 23.8823 13.7607 22.8156 13.4674C21.1489 13.0141 20.1356 11.6541 19.0156 10.4274C18.5756 9.94741 19.2556 9.26741 19.7223 9.72074C21.6423 11.5474 23.2156 13.0007 25.5756 10.2674C25.7889 10.0141 26.2556 9.94741 26.5223 10.1474C27.8156 11.0807 29.6156 12.4141 31.3356 11.7741C32.9223 11.1741 33.6289 10.0407 34.6823 8.85408C35.0289 8.46741 35.4823 8.66741 35.6823 9.01408C35.8156 8.90741 36.0023 8.88074 36.1756 9.04074C39.4289 12.2141 41.8156 11.1341 44.3489 8.01408C44.5223 7.80074 44.8823 7.72074 45.1223 7.80074C47.2156 8.53408 49.4023 8.90741 51.4689 9.70741C54.3089 10.8141 56.0689 11.5207 58.7356 10.0407C59.4023 9.66741 60.0156 10.2007 60.0823 10.7874C60.1356 10.7074 60.1889 10.6274 60.2289 10.5607C60.5623 10.0674 61.4156 10.3607 61.2156 10.9607C60.8423 12.0674 60.0556 14.3074 60.7756 15.4141C61.6023 16.6807 63.7756 16.1607 64.9756 16.6807Z" fill="#1D1D1B"/>
<path d="M65.0022 46.1474C64.8289 48.9341 64.7089 51.7208 64.7222 54.5074C64.4289 54.4408 64.0956 54.4808 63.7622 54.7208C55.7756 60.2808 43.0556 60.7874 33.7489 61.2274C24.7356 61.6541 12.0289 62.2541 6.92223 53.4674C6.8689 53.3874 6.81557 53.3474 6.7489 53.3074C6.7889 50.2141 6.53557 47.0541 6.32224 43.9074C13.3356 50.9074 24.6822 52.4674 34.1489 52.7341C43.9356 53.0008 56.5489 51.7608 65.0022 46.1474Z" fill="#683C11"/>
<path d="M34.7623 22.2141C35.4556 22.6674 35.0289 23.7741 34.2023 23.5608C33.1089 23.2674 32.2556 22.6808 31.3089 22.0941C29.3489 20.8941 28.5889 22.3608 27.5756 24.0008C27.1756 24.6408 26.3623 24.4408 26.1089 23.8141C25.6289 22.6141 24.9889 20.7208 23.9223 19.8408C22.1889 18.4008 20.8689 21.3608 20.4023 22.2674C20.2289 22.6008 19.6556 22.3608 19.8023 22.0141C20.3356 20.6941 21.3356 18.0408 23.2156 18.3074C24.9889 18.5608 26.1223 20.3341 26.9489 21.9474C27.7223 20.7874 28.7089 19.7341 30.1756 19.8141C31.6823 19.9074 33.5489 21.4274 34.7623 22.2141Z" fill="#1D1D1B"/>
<path d="M18.4956 9.70741C19.5622 11.4274 18.4289 14.4674 16.7089 15.4141C16.4422 15.5607 16.1889 15.6674 15.9222 15.7607C16.2289 15.9207 16.5356 16.1074 16.8156 16.3607C18.2689 17.7074 19.0556 20.3741 18.5756 22.2941C18.3889 23.0007 17.3489 22.9874 17.1622 22.2941C16.7222 20.6807 17.1489 18.6941 15.7089 17.4674C14.5089 16.4407 12.7489 16.5607 11.2956 16.7741C10.4022 16.8941 10.0022 15.5474 10.9089 15.4007C11.3089 15.3341 11.7089 15.2807 12.1356 15.2407C11.6289 14.9607 11.1489 14.6007 10.7222 14.2141C10.2689 13.8007 10.8556 13.0541 11.3756 13.3741C12.6289 14.1474 14.4822 14.9741 15.8689 13.9874C17.3756 12.9074 16.7356 11.3607 17.1622 9.88075C17.3356 9.25408 18.1622 9.16075 18.4956 9.70741" fill="#1D1D1B"/>
</svg>
