<svg width="46" height="70" viewBox="0 0 46 70" fill="none" xmlns="http://www.w3.org/2000/svg">
<rect width="46" height="70" fill="#E5E5E5"/>
<path d="M22.8942 15.5505C22.8942 15.5505 5.45416 16.0252 4.02882 17.1119C2.60349 18.1972 1.72082 20.8439 6.06482 21.7932C10.4075 22.7439 41.6915 25.3225 43.3888 21.7265C45.0848 18.1292 33.6835 16.0252 31.7168 16.1612C29.7488 16.2972 22.8942 15.5505 22.8942 15.5505Z" fill="#F6F6F6"/>
<path d="M27.5765 15.2111L29.4085 6.45641C29.4085 6.45641 38.5699 8.28974 39.6565 7.00041C40.7419 5.71108 37.7552 0.824412 31.1059 1.84308C24.4552 2.86041 22.7579 4.28575 22.5552 8.62841C22.3512 12.9724 23.7085 17.1791 23.7085 17.1791C23.7085 17.1791 27.2379 16.5684 27.5765 15.2111" fill="#E30613"/>
<path d="M26.4423 12.9874C26.6156 11.7474 26.8156 10.5208 26.9623 9.28076C26.4689 9.09409 25.9889 8.78743 25.5356 8.54743C25.0823 8.30743 24.6423 8.05409 24.1889 7.81409C23.3489 10.4274 23.5356 13.6008 24.0956 16.4541C26.2689 16.2408 26.0956 15.3741 26.4423 12.9874ZM27.4689 5.68076C27.4556 5.65409 27.4289 5.62742 27.4023 5.60076C27.0689 5.16076 26.7356 4.73409 26.4423 4.28076C25.7756 4.86743 25.2289 5.54743 24.8289 6.30743C25.3489 6.54743 25.8823 6.78743 26.4156 7.04076C26.6423 7.14743 26.8956 7.25409 27.1356 7.37409C27.1623 7.08076 27.1889 6.78742 27.2023 6.50742C27.2023 6.17409 27.3089 5.90743 27.4689 5.68076ZM39.6689 6.16076C39.2956 2.64076 32.4156 1.97409 29.9623 2.54743C29.1223 2.73409 28.3889 3.02743 27.7489 3.37409C28.1489 3.90743 28.5889 4.41409 29.0556 4.89409C29.1489 4.97409 29.2423 5.05409 29.3223 5.13409C32.6689 5.69409 36.2423 6.06743 39.6689 6.16076ZM36.3889 46.2674C38.3356 39.0674 40.1089 32.0674 41.0423 24.6941C33.7623 26.8274 25.3489 26.8941 18.0556 26.3741C16.3089 26.2541 11.8156 26.0274 8.06893 25.0141C9.68227 31.3208 10.1623 37.9874 10.8956 44.4008C11.4156 48.8274 11.8956 53.3074 12.9089 57.6674C13.4556 60.0408 14.5223 62.2141 15.2289 64.4941C15.3223 64.4941 15.4156 64.4674 15.5089 64.4808C21.2423 65.5074 26.9623 66.4541 32.7223 65.0008C32.8156 64.9741 32.9089 64.9741 33.0023 64.9608C32.5889 58.7208 34.7889 52.1874 36.3889 46.2674V46.2674ZM45.7623 21.1608C46.0156 21.9874 45.5623 22.5608 44.9489 22.7608C44.8156 23.1474 44.5356 23.4808 44.0689 23.6674C43.7889 23.7741 43.4956 23.8541 43.2156 23.9608C43.9623 30.3341 42.6023 37.0541 41.0023 43.2008C39.0023 50.9074 37.5223 58.4541 36.2023 66.2941C36.0423 67.2141 35.3489 67.5208 34.6556 67.4141C34.4823 67.7874 34.1489 68.1074 33.6156 68.2408C27.4423 69.8008 20.7889 69.0674 14.7489 67.2541C14.6156 67.2141 14.5089 67.1341 14.4023 67.0674C14.1889 67.0808 13.9756 67.0408 13.7623 66.9208C8.9756 64.2674 8.70893 53.9074 8.12227 49.2808C7.04227 40.8674 6.60227 32.3608 5.24227 23.9741C3.78893 23.2674 2.7356 22.3208 2.44226 21.0941C1.62893 20.9074 1.04227 20.5474 0.348932 19.2674C-0.0110682 18.5874 0.148931 17.6541 0.868931 17.2674C6.04226 14.5074 14.1889 12.7341 19.8956 14.6141C20.7889 14.9074 20.7889 16.1341 19.8956 16.4274C17.1089 17.3474 14.0823 16.9341 11.1889 17.2408C8.4956 17.5341 5.9756 18.1074 3.54893 19.2008C3.62893 19.3074 3.72227 19.4008 3.82893 19.4808C6.10893 20.2408 8.04226 21.7208 10.5889 22.1741C14.5089 22.8808 18.4689 23.1741 22.4423 23.1208C29.1623 23.0541 36.1756 22.7608 42.7089 21.0541C40.4556 17.0674 34.1489 17.0141 30.1623 17.1741C30.1223 17.1741 30.0823 17.1608 30.0423 17.1474C30.0156 17.1741 29.9889 17.2008 29.9623 17.2274C29.4289 17.6008 28.7756 17.6408 28.1223 17.7474C28.0823 17.8008 28.0689 17.8808 28.0156 17.9341C29.2289 18.1874 30.5756 18.4674 31.4423 19.1341C32.2156 19.7341 32.0423 21.0541 30.9089 21.0808C29.4156 21.0941 27.7489 20.1208 26.3089 19.7074C25.9356 19.5874 25.5489 19.5074 25.1756 19.4008C24.8156 19.7341 24.4823 20.0941 24.1756 20.4808C23.4956 21.3741 21.9889 20.5874 22.6156 19.5741C22.7489 19.3741 22.8823 19.1874 23.0156 18.9874C22.8689 18.9474 22.7489 18.8941 22.6423 18.8141C22.1356 18.7208 21.6423 18.6408 21.1489 18.5741C20.1356 18.4541 20.0956 17.0541 21.1489 16.9741C21.5889 16.9474 22.0289 16.9474 22.4689 16.9608C22.4823 16.9341 22.5089 16.9074 22.5356 16.8674C20.2823 9.72076 21.7623 1.25409 30.5756 0.374094C34.8823 -0.052573 42.5223 1.82743 41.7089 7.53409C41.6423 8.00076 41.1089 8.32076 40.6823 8.32076C37.0023 8.34743 33.5356 8.60076 29.9223 8.16076C29.7623 9.18743 29.5223 10.2008 29.2556 11.2274C28.9223 12.4674 28.8423 13.7741 28.7089 15.0541C29.1489 15.0274 29.5756 15.0941 29.9623 15.3208C29.9889 15.3341 30.0156 15.3608 30.0423 15.3874C35.9223 14.2941 43.6689 14.3474 45.7623 21.1608" fill="#1D1D1B"/>
<path d="M41.0423 24.694C40.109 32.0673 38.3356 39.0673 36.389 46.2673C34.789 52.1873 32.589 58.7207 33.0023 64.9607C32.909 64.974 32.8156 64.974 32.7223 65.0007C26.9623 66.454 21.2423 65.5073 15.509 64.4807C15.4156 64.4673 15.3223 64.494 15.229 64.494C14.5223 62.214 13.4556 60.0407 12.909 57.6673C11.8956 53.3073 11.4156 48.8273 10.8956 44.4007C10.1623 37.9873 9.6823 31.3207 8.06897 25.014C11.8156 26.0273 16.309 26.254 18.0556 26.374C25.349 26.894 33.7623 26.8273 41.0423 24.694Z" fill="#8F8CFF"/>
</svg>
