<svg width="59" height="79" viewBox="0 0 59 79" fill="none" xmlns="http://www.w3.org/2000/svg">
<rect width="59" height="79" fill="#E5E5E5"/>
<path d="M55.7645 17.2955C56.0712 17.7355 56.9672 26.7021 56.6472 27.5421C55.8738 29.4621 55.8418 31.6648 55.6285 33.7181C55.6152 33.7181 48.2565 32.6955 48.2565 32.6955C48.0698 32.0955 47.4432 31.8421 46.8298 31.9088C47.3498 28.4555 47.7632 24.9355 49.4298 21.8688C49.6965 21.3888 49.6565 20.7488 49.2432 20.3621C48.4298 19.6155 47.5765 18.9355 46.6965 18.2955C46.7632 18.1621 52.3725 11.1181 52.4392 10.9848C54.5992 10.9181 54.5778 15.6421 55.7645 17.2955Z" fill="#FBBE3A"/>
<path d="M11.9229 28.8691C13.5362 29.4024 14.9362 30.0957 16.2429 30.9357C14.1629 25.6291 11.3896 20.8957 6.89623 17.1891C5.8829 17.8157 4.90957 18.5357 4.09623 19.4024C7.42957 21.8824 10.2162 24.9091 11.6829 28.8157C11.7629 28.8291 11.8429 28.8424 11.9229 28.8691ZM13.7096 19.7757C13.5629 18.6691 13.6162 17.5491 13.8162 16.4691C12.7762 15.7891 12.0429 14.7891 11.0562 14.0157C9.62957 12.9091 8.0829 11.9491 6.4429 11.1891C3.0829 9.60239 2.22957 13.7224 2.38957 16.5357C3.54957 15.4691 4.8829 14.5891 6.21623 13.8557C6.90957 13.4691 7.57623 13.6291 8.1629 14.0957C10.2162 15.7491 12.0962 17.6691 13.7096 19.7757ZM23.0962 68.6024C21.8429 64.6291 21.3362 60.2824 20.6562 56.3491C19.4562 49.4024 18.4829 42.4691 17.9896 35.4424C16.2562 34.0157 14.9096 33.0691 13.0962 32.3357C13.7762 45.0024 14.3229 59.5624 23.0962 68.6024V68.6024ZM19.1229 16.7491C20.2962 13.7491 22.4696 12.7891 24.8296 13.0691C23.2029 11.3224 20.8562 10.6957 18.6162 12.7357C15.8296 15.2691 15.1362 18.9757 16.0162 22.5491C16.0696 22.7624 16.0162 22.9491 15.9096 23.1091C17.6162 26.0557 18.8162 29.2824 19.3362 32.6557C20.4162 32.2024 21.6829 31.9357 22.8829 31.8691C22.2029 26.5091 24.2962 20.8024 27.1496 16.3357C25.7096 15.4691 23.8029 14.6291 22.5629 15.8557C21.4029 17.0024 20.8429 18.6557 20.5229 20.2291C19.8296 23.6957 19.8429 27.3624 20.4029 30.8424C20.5229 31.6291 19.4429 31.9624 19.2029 31.1757C17.8429 26.7891 17.4162 21.0957 19.1229 16.7491ZM26.3362 34.5491C26.6962 36.7224 29.0562 36.3491 30.7096 36.5091C30.0029 34.6424 29.3496 32.8024 28.2696 31.0957C27.4296 29.8024 26.5629 28.5491 25.6962 27.2824C25.5096 29.0157 25.4962 30.7357 25.3896 32.4824C25.5362 32.7091 25.6429 32.9624 25.6429 33.2424C25.8429 33.3491 26.0162 33.5224 26.1229 33.7357C26.1496 33.6957 26.2296 33.6824 26.3762 33.6957C26.8162 33.4824 27.1362 34.0557 26.7629 34.3491C26.5629 34.4957 26.4296 34.5491 26.3362 34.5491V34.5491ZM30.8696 3.70905C29.9896 3.32239 29.0962 2.98905 28.3362 2.42905C27.3896 1.72239 25.3896 3.00239 24.5629 3.37572C22.9229 4.09572 21.3229 4.81572 19.6162 5.34905C20.1629 6.66905 20.6696 8.01572 21.2562 9.32239C22.0162 9.28239 22.7362 9.38905 23.4162 9.61572C22.9362 8.53572 22.4296 7.38905 22.2696 6.21572C22.2162 5.80239 22.5496 5.26905 22.9096 5.09572C25.2962 3.93572 28.2029 3.72239 30.8696 3.70905V3.70905ZM33.6562 22.9891C32.1229 18.7091 31.8162 14.1624 33.0296 9.88239C32.3496 8.54905 31.8296 7.13572 31.2162 5.76239C29.1896 5.92239 27.0429 6.36239 25.0829 7.04239C25.4562 8.17572 26.1496 10.1357 26.2429 11.5491C26.8962 12.2557 27.4429 13.0957 27.8962 14.0424C28.4162 14.3091 28.9362 14.6024 29.4296 14.9491C29.9362 15.2957 30.2429 16.0157 29.8562 16.5891C29.6429 16.9224 29.4296 17.2557 29.2296 17.5891C30.7762 19.2557 32.3096 21.0557 33.6562 22.9891ZM32.6562 36.6957C34.0562 36.8291 35.4562 36.9757 36.8562 37.1091C35.7762 30.3891 31.8696 25.2957 27.8429 20.0424C27.2562 21.2291 26.7496 22.4691 26.3896 23.7357C26.5229 23.8024 26.6696 23.8957 26.7896 24.0291C29.8829 27.2824 32.5496 32.0957 32.6562 36.6957ZM40.7629 18.0024C41.6829 15.1091 41.4162 12.4691 41.3762 9.49572C41.3629 8.50905 38.2829 7.66905 36.9496 7.37572C36.9229 7.41572 36.8962 7.46905 36.8696 7.49572C36.6162 7.80239 36.2296 7.76239 35.9496 7.58905C35.5362 8.00239 35.2296 8.88239 34.9762 9.90906C35.0162 10.1091 34.9629 10.2957 34.8562 10.4424C34.3762 12.7624 34.2162 15.6157 34.2296 16.1224C34.2962 18.8291 34.7496 21.4557 35.4429 24.0824C35.5496 24.4691 35.2296 24.8024 34.8962 24.8691C35.7096 26.1891 36.4429 27.5624 37.0429 28.9891C37.4162 25.2424 38.5629 21.6557 40.7629 18.4691C40.7229 18.3224 40.7096 18.1757 40.7629 18.0024V18.0024ZM44.6962 36.1091C43.8296 31.6691 44.8829 25.7624 46.8296 21.5624C45.8029 20.6824 44.7229 19.9091 43.5762 19.2157C40.8029 24.0957 38.8829 28.6157 38.5096 34.0957C38.6696 35.1491 38.7496 36.2157 38.7229 37.2957C40.5362 37.4691 42.3629 37.6157 44.1896 37.7091C44.3362 37.1757 44.5096 36.6424 44.6962 36.1091V36.1091ZM46.2162 14.8824C46.1362 14.7757 46.0829 14.6424 46.0829 14.4824C45.9362 11.7491 45.4296 8.49572 43.2696 6.56239C42.1496 5.56239 40.7229 4.89572 39.2029 4.84238C38.6429 4.82905 38.2562 5.22905 37.9229 5.73572C39.6162 6.18905 41.2696 6.88239 42.8429 7.61572C43.1629 7.76239 43.3229 8.14905 43.3362 8.46905C43.4162 11.1224 43.7496 13.7357 43.2029 16.2424C43.3896 16.2691 43.5762 16.3091 43.7362 16.3891C44.0296 16.5491 44.2962 16.7224 44.5762 16.8824C44.6162 16.8024 44.6429 16.7091 44.6562 16.6157C44.7496 16.2557 45.0562 15.9491 45.4162 15.8557C45.5362 15.8291 45.6562 15.8157 45.7762 15.7891C45.9096 15.4824 46.0696 15.1891 46.2162 14.8824V14.8824ZM51.6296 10.3357C50.7229 10.8424 49.8829 11.4557 48.9096 11.7091C48.9896 12.6691 48.8029 13.6157 48.3496 14.5491C48.1629 14.9357 47.9896 15.3357 47.8162 15.7491C48.0696 15.7757 48.3096 15.8157 48.5629 15.8824C49.4296 13.9357 50.6829 12.2291 51.6296 10.3357ZM49.7096 26.6691C50.0296 25.8291 52.5496 21.4824 52.2429 21.0424C51.0562 19.3891 49.0429 17.8424 46.8829 17.9091C46.8162 18.0424 46.7629 18.1624 46.6962 18.2957C47.5762 18.9357 48.4296 19.6157 49.2429 20.3624C49.6562 20.7491 49.6962 21.3891 49.4296 21.8691C47.7629 24.9357 47.3496 28.4557 46.8296 31.9091C47.4429 31.8424 48.0696 32.0957 48.2562 32.6957H48.2696C48.4829 30.6424 48.9362 28.5891 49.7096 26.6691V26.6691ZM53.2029 35.5091C51.5762 35.5224 49.9496 35.4291 48.3629 35.3624C48.1762 35.3491 48.0162 35.3091 47.8829 35.2557C47.4962 36.5891 46.9896 37.8957 46.8429 39.2824C46.7629 40.0957 46.2296 40.7624 45.3496 40.7757C39.4962 40.8157 33.7762 39.4824 27.9496 39.2024C25.5896 39.0957 23.8962 37.3091 23.8429 34.8424C23.7762 34.8024 23.7229 34.7491 23.6562 34.6957C22.5629 34.7357 21.4962 34.6824 20.4296 34.8691C22.8296 46.1624 23.0296 58.9357 27.3096 69.6157C30.3362 77.1491 40.4829 73.5891 46.8562 73.5757C47.1229 73.5757 47.3496 73.6291 47.5496 73.7091C47.3362 72.1624 46.7762 71.1091 47.0829 69.1224C47.6829 65.1757 48.3629 61.2424 49.0696 57.2957C49.8829 52.7491 50.7629 48.2024 51.6162 43.6557C52.0829 41.2157 52.2162 37.9891 53.2029 35.5091V35.5091ZM53.6962 9.49572C58.5496 16.2024 59.2162 24.2424 56.7096 31.9891C56.3629 33.0557 54.7896 32.6291 55.0429 31.5357C56.6296 24.5624 55.8429 18.3357 52.8429 12.0957C52.0162 13.5624 51.0429 14.9491 50.2296 16.4424C51.6162 17.0824 52.8429 18.0691 53.6562 19.2424C55.3096 21.6024 54.2562 22.1624 53.0562 24.6557C51.8162 27.2291 51.0429 29.8691 50.2562 32.5891C51.8829 32.5224 53.5229 32.4824 55.1229 32.6024C56.1629 32.6957 56.5896 33.5624 56.4296 34.3091C56.4429 34.3357 56.4696 34.3624 56.4696 34.4024C57.1629 37.1357 55.9896 40.5224 55.4962 43.2557C54.6696 47.7624 53.8562 52.2824 53.0029 56.7891C52.2429 60.8691 51.4562 64.9491 50.8029 69.0557C50.5096 70.8024 49.3629 72.8157 49.1229 74.0557C49.0429 74.4824 48.7362 74.6291 48.4296 74.6157C48.8296 75.6424 48.3096 77.0824 46.8562 77.1091C40.7496 77.2691 29.6962 80.4424 25.5496 74.0291C25.4162 73.8424 25.3229 73.6424 25.2162 73.4424C10.4429 66.9891 10.5229 44.6291 10.0829 30.2557C10.0829 29.9491 10.2029 29.6424 10.3896 29.3891C8.37623 25.7091 5.30957 22.9091 1.33623 21.3224C0.389568 20.9491 -0.263766 19.8824 0.349567 18.9091C0.496234 18.6824 0.669568 18.4557 0.829568 18.2291C-0.970432 14.1624 0.162901 10.5091 4.18957 8.21572C5.6429 7.38905 9.2829 10.0691 10.4429 10.8424C11.7762 11.7357 13.4696 12.7891 14.5096 14.1624C15.2562 12.5091 16.4962 11.0691 18.2696 10.1624C18.6696 9.96239 19.0562 9.80239 19.4429 9.66906C18.7629 8.18906 18.1629 6.68239 17.4429 5.21572C17.1629 4.62905 17.3896 3.94905 18.0296 3.76239C21.1229 2.80239 23.9229 1.04238 27.0296 0.175718C28.7896 -0.317615 28.4296 0.282385 30.0296 1.29572C31.1096 1.97572 32.0962 2.62905 32.9896 3.54905C33.2962 3.85572 33.1229 4.33572 32.8162 4.49572C33.2296 5.42905 33.6162 6.36238 33.9896 7.29572C34.2296 6.77572 34.4562 6.24238 34.7496 5.72238C34.8962 5.45572 35.2562 5.21572 35.5896 5.25572C35.8296 5.28239 36.0829 5.34905 36.3362 5.38905C36.8429 4.30905 37.4696 3.05572 38.5896 3.09572C40.4429 3.14905 42.2696 3.54905 43.7629 4.70905C45.4562 6.01572 46.4829 7.82906 47.0562 9.81572C47.1362 9.76239 47.2162 9.69572 47.3229 9.66906C48.4562 9.40239 49.5896 9.33572 50.7096 8.97572C51.4429 8.73572 52.0962 8.58905 52.8696 8.68239C53.1762 8.70905 53.3762 8.96239 53.3896 9.22905C53.5096 9.29572 53.6162 9.38905 53.6962 9.49572" fill="#1D1D1B"/>
<path d="M48.3629 35.3624C49.9496 35.429 51.5762 35.5224 53.2029 35.509C52.2162 37.989 52.0829 41.2157 51.6162 43.6557C50.7629 48.2024 49.8829 52.749 49.0696 57.2957C48.3629 61.2424 47.6829 65.1757 47.0829 69.1224C46.7762 71.109 47.3362 72.1624 47.5496 73.709C47.3496 73.629 47.1229 73.5757 46.8562 73.5757C40.4829 73.589 30.3362 77.149 27.3096 69.6157C23.0296 58.9357 22.8296 46.1624 20.4296 34.869C21.4962 34.6824 22.5629 34.7357 23.6562 34.6957C23.7229 34.749 23.7762 34.8024 23.8429 34.8424C23.8962 37.309 25.5896 39.0957 27.9496 39.2024C33.7762 39.4824 39.4962 40.8157 45.3496 40.7757C46.2296 40.7624 46.7629 40.0957 46.8429 39.2824C46.9896 37.8957 47.4962 36.589 47.8829 35.2557C48.0162 35.309 48.1762 35.349 48.3629 35.3624Z" fill="#FF4121"/>
<path d="M48.9095 11.709C49.8829 11.4557 50.7229 10.8423 51.6295 10.3357C50.6829 12.229 49.4295 13.9357 48.5629 15.8823C48.3095 15.8157 48.0695 15.7757 47.8162 15.749C47.9895 15.3357 48.1629 14.9357 48.3495 14.549C48.8029 13.6157 48.9895 12.669 48.9095 11.709" fill="#FBBE3A"/>
<path d="M46.0829 14.4823C46.0829 14.6423 46.1362 14.7757 46.2162 14.8823C46.0695 15.189 45.9095 15.4823 45.7762 15.789C45.6562 15.8157 45.5362 15.829 45.4162 15.8557C45.0562 15.949 44.7495 16.2557 44.6562 16.6157C44.6429 16.709 44.6162 16.8023 44.5762 16.8823C44.2962 16.7223 44.0295 16.549 43.7362 16.389C43.5762 16.309 43.3895 16.269 43.2029 16.2423C43.7495 13.7357 43.4162 11.1223 43.3362 8.46899C43.3229 8.14899 43.1629 7.76233 42.8429 7.61566C41.2695 6.88233 39.6162 6.18899 37.9229 5.73566C38.2562 5.22899 38.6429 4.82899 39.2029 4.84233C40.7229 4.89566 42.1495 5.56233 43.2695 6.56233C45.4295 8.49566 45.9362 11.749 46.0829 14.4823Z" fill="#FBBE3A"/>
<path d="M46.8296 21.5623C44.8829 25.7623 43.8296 31.669 44.6962 36.109C44.5096 36.6423 44.3362 37.1757 44.1896 37.709C42.3629 37.6157 40.5362 37.469 38.7229 37.2957C38.7496 36.2157 38.6696 35.149 38.5096 34.0957C38.8829 28.6157 40.8029 24.0957 43.5762 19.2157C44.7229 19.909 45.8029 20.6823 46.8296 21.5623Z" fill="#FBBE3A"/>
<path d="M41.3762 9.49568C41.4162 12.469 41.6829 15.109 40.7629 18.0023C40.7096 18.1757 40.7229 18.3223 40.7629 18.469C38.5629 21.6557 37.4162 25.2423 37.0429 28.989C36.4429 27.5623 35.7096 26.189 34.8962 24.869C35.2296 24.8023 35.5496 24.469 35.4429 24.0823C34.7496 21.4557 34.2962 18.829 34.2296 16.1223C34.2162 15.6157 34.3762 12.7623 34.8562 10.4423C34.9629 10.2957 35.0162 10.109 34.9762 9.90902C35.2296 8.88235 35.5362 8.00235 35.9496 7.58902C36.2296 7.76235 36.6162 7.80235 36.8696 7.49568C36.8962 7.46902 36.9229 7.41568 36.9496 7.37568C38.2829 7.66902 41.3629 8.50902 41.3762 9.49568Z" fill="#FBBE3A"/>
<path d="M36.8562 37.1091C35.4562 36.9758 34.0562 36.8291 32.6562 36.6958C32.5496 32.0958 29.8829 27.2825 26.7896 24.0291C26.6696 23.8958 26.5229 23.8025 26.3896 23.7358C26.7496 22.4691 27.2562 21.2291 27.8429 20.0425C31.8696 25.2958 35.7762 30.3891 36.8562 37.1091Z" fill="#FBBE3A"/>
<path d="M33.0296 9.88235C31.8162 14.1623 32.1229 18.709 33.6562 22.989C32.3096 21.0557 30.7762 19.2557 29.2296 17.589C29.4296 17.2557 29.6429 16.9223 29.8562 16.589C30.2429 16.0157 29.9362 15.2957 29.4296 14.949C28.9362 14.6023 28.4162 14.309 27.8962 14.0423C27.4429 13.0957 26.8962 12.2557 26.2429 11.549C26.1496 10.1357 25.4562 8.17568 25.0829 7.04235C27.0429 6.36235 29.1896 5.92235 31.2162 5.76235C31.8296 7.13568 32.3496 8.54901 33.0296 9.88235Z" fill="#FBBE3A"/>
<path d="M28.3362 2.42906C29.0962 2.98906 29.9896 3.32239 30.8696 3.70906C28.2029 3.72239 25.2962 3.93572 22.9096 5.09572C22.5496 5.26906 22.2162 5.80239 22.2696 6.21572C22.4296 7.38906 22.9362 8.53572 23.4162 9.61572C22.7362 9.38906 22.0162 9.28239 21.2562 9.32239C20.6696 8.01572 20.1629 6.66906 19.6162 5.34906C21.3229 4.81572 22.9229 4.09572 24.5629 3.37572C25.3896 3.00239 27.3896 1.72239 28.3362 2.42906Z" fill="#FBBE3A"/>
<path d="M30.7096 36.509C29.0562 36.349 26.6962 36.7224 26.3362 34.549C26.4296 34.549 26.5629 34.4957 26.7629 34.349C27.1362 34.0557 26.8162 33.4824 26.3762 33.6957C26.2296 33.6824 26.1496 33.6957 26.1229 33.7357C26.0162 33.5224 25.8429 33.349 25.6429 33.2424C25.6429 32.9624 25.5362 32.709 25.3896 32.4824C25.4962 30.7357 25.5096 29.0157 25.6962 27.2824C26.5629 28.549 27.4296 29.8024 28.2696 31.0957C29.3496 32.8024 30.0029 34.6424 30.7096 36.509Z" fill="#FBBE3A"/>
<path d="M24.8295 13.0691C22.4695 12.7891 20.2962 13.7491 19.1229 16.7491C17.4162 21.0958 17.8429 26.7891 19.2029 31.1758C19.4429 31.9624 20.5229 31.6291 20.4029 30.8424C19.8429 27.3624 19.8295 23.6958 20.5229 20.2291C20.8429 18.6558 21.4029 17.0024 22.5629 15.8558C23.8029 14.6291 25.7095 15.4691 27.1495 16.3358C24.2962 20.8024 22.2029 26.5091 22.8829 31.8691C21.6829 31.9358 20.4162 32.2024 19.3362 32.6558C18.8162 29.2824 17.6162 26.0558 15.9095 23.1091C16.0162 22.9491 16.0695 22.7624 16.0162 22.5491C15.1362 18.9758 15.8296 15.2691 18.6162 12.7358C20.8562 10.6958 23.2029 11.3224 24.8295 13.0691Z" fill="#FBBE3A"/>
<path d="M20.6562 56.3491C21.3362 60.2824 21.8429 64.6291 23.0962 68.6024C14.3229 59.5624 13.7762 45.0024 13.0962 32.3358C14.9096 33.0691 16.2562 34.0158 17.9896 35.4424C18.4829 42.4691 19.4562 49.4024 20.6562 56.3491Z" fill="#FF4121"/>
<path d="M13.8162 16.469C13.6162 17.549 13.5629 18.669 13.7095 19.7756C12.0962 17.669 10.2162 15.749 8.16288 14.0956C7.57621 13.629 6.90955 13.469 6.21621 13.8556C4.88288 14.589 3.54955 15.469 2.38955 16.5356C2.22955 13.7223 3.08288 9.6023 6.44288 11.189C8.08288 11.949 9.62955 12.909 11.0562 14.0156C12.0429 14.789 12.7762 15.789 13.8162 16.469Z" fill="#FBBE3A"/>
<path d="M16.2429 30.9358C14.9362 30.0958 13.5362 29.4025 11.9229 28.8691C11.8429 28.8425 11.7629 28.8291 11.6829 28.8158C10.2162 24.9091 7.42956 21.8825 4.09622 19.4025C4.90956 18.5358 5.88289 17.8158 6.89622 17.1891C11.3896 20.8958 14.1629 25.6291 16.2429 30.9358Z" fill="#FBBE3A"/>
</svg>
